<svg width="499" height="85" viewBox="0 0 499 85" fill="none" xmlns="http://www.w3.org/2000/svg">
<path d="M23.4042 66.3432C19.0522 66.3432 14.8602 65.9912 10.8282 65.2872C8.74415 64.8902 6.83111 64.4078 5.08905 63.8399C2.28805 62.9267 0.652172 60.1696 0.652172 57.2235V55.4764C0.652172 50.4786 5.98448 47.0638 10.8282 48.2952C14.6042 49.2552 17.9642 49.7352 20.9082 49.7352C22.8282 49.7352 24.3322 49.5112 25.4202 49.0632C26.5082 48.5512 27.0522 47.8472 27.0522 46.9512C27.0522 45.7992 26.0282 44.9032 23.9802 44.2632C21.9322 43.6232 19.2442 42.6952 15.9162 41.4792C11.9482 39.9432 8.81217 38.3432 6.50817 36.6792C4.20417 35.0152 2.54017 33.0312 1.51617 30.7272C0.556172 28.3592 0.0761719 25.4152 0.0761719 21.8952C0.0761719 9.0312 9.13217 2.5992 27.2442 2.5992C29.2922 2.5992 31.5642 2.7592 34.0602 3.0792C36.6202 3.3352 39.0842 3.6872 41.4522 4.1352C41.6362 4.1691 41.8181 4.20319 41.9977 4.23746C45.3603 4.8789 47.5962 7.91114 47.5962 11.3343V13.2542C47.5962 17.91 42.8578 20.9424 38.2842 20.0712C35.5962 19.5592 33.2282 19.3032 31.1802 19.3032C29.5802 19.3032 27.9482 19.4632 26.2842 19.7832C24.6202 20.0392 23.7882 20.6792 23.7882 21.7032C23.7882 22.5352 24.5242 23.2072 25.9962 23.7192C27.4682 24.1672 29.8042 24.8392 33.0042 25.7352C38.1242 27.1432 41.9642 28.8392 44.5242 30.8232C47.0842 32.7432 48.7802 35.0472 49.6122 37.7352C50.5082 40.3592 50.9562 43.3992 50.9562 46.8552C50.9562 52.7432 48.6522 57.4792 44.0442 61.0632C39.4362 64.5832 32.5562 66.3432 23.4042 66.3432Z" fill="white"/>
<path d="M70.0264 82.2792C66.8904 82.2792 64.3304 82.1192 62.3464 81.7992C61.902 81.7251 61.4559 81.6373 61.008 81.5358C58.1986 80.8991 56.4904 78.1968 56.4904 75.3162V71.1538C56.4904 68.2808 59.3774 66.2472 62.2504 66.2472C64.1704 66.2472 65.7704 66.0872 67.0504 65.7672C69.3015 65.317 69.6704 62.5809 68.6892 60.5055L56.6484 35.0367C53.318 27.9923 58.4565 19.8792 66.2485 19.8792H69.0738C71.8877 19.8792 74.4056 21.6852 75.3392 24.3397C77.4161 30.2453 85.8329 30.3036 87.8201 24.3673C88.7175 21.6864 91.2281 19.8792 94.0553 19.8792H97.2942C105.092 19.8792 110.448 27.7235 107.609 34.9863L97.8664 59.9112C95.1144 66.8872 91.5304 72.3592 87.1144 76.3272C82.6984 80.2952 77.0024 82.2792 70.0264 82.2792Z" fill="white"/>
<path d="M127.507 65.3832C121.357 65.3832 116.371 60.3974 116.371 54.2472V31.5513C116.371 25.105 121.597 19.8792 128.043 19.8792H136.827C137.432 19.8792 137.95 20.3154 138.053 20.9125C138.2 21.7636 139.15 22.2126 139.928 21.8373C141.319 21.1659 142.843 20.5772 144.499 20.0712C146.803 19.3032 149.427 18.9192 152.371 18.9192C155.059 18.9192 157.171 19.2712 158.707 19.9752C161.343 21.1352 164.526 21.9084 167.201 20.8414C167.904 20.5611 168.625 20.3043 169.363 20.0712C171.859 19.3032 174.771 18.9192 178.099 18.9192C183.539 18.9192 187.475 20.3592 189.907 23.2392C192.339 26.0552 193.555 30.3432 193.555 36.1032V54.0072C193.555 60.29 188.462 65.3832 182.179 65.3832C175.896 65.3832 170.803 60.29 170.803 54.0072V38.8872C170.803 37.8632 170.611 37.1272 170.227 36.6792C169.907 36.2312 169.203 36.0072 168.115 36.0072C166.151 36.0072 165.427 38.346 165.427 40.3105V54.6792C165.427 60.5909 160.635 65.3832 154.723 65.3832C148.812 65.3832 144.019 60.5909 144.019 54.6792V38.3112C144.019 36.7752 143.315 36.0072 141.907 36.0072C139.438 36.0072 138.643 39.0875 138.643 41.5569V54.2472C138.643 60.3974 133.657 65.3832 127.507 65.3832Z" fill="white"/>
<path d="M211.425 84.5832C205.009 84.5832 199.809 79.3825 199.809 72.9672V31.6946C199.809 25.1691 205.099 19.8792 211.624 19.8792H218.88C219.533 19.8792 220.115 20.2902 220.333 20.9053C220.678 21.8777 221.864 22.2427 222.755 21.723C223.949 21.0268 225.228 20.4442 226.593 19.9752C228.641 19.2712 231.041 18.9192 233.793 18.9192C240.641 18.9192 245.921 20.7432 249.633 24.3912C253.409 28.0392 255.297 33.9272 255.297 42.0552C255.297 50.1832 253.313 56.2632 249.345 60.2952C245.441 64.3272 239.969 66.3432 232.929 66.3432C231.265 66.3432 229.505 66.1512 227.649 65.7672C225.375 65.3752 223.041 67.0639 223.041 69.3713V76.3799C223.041 80.9104 219.368 84.5832 214.837 84.5832H211.425ZM227.073 49.7352C228.481 49.7352 229.569 49.1912 230.337 48.1032C231.169 47.0152 231.585 45.0952 231.585 42.3432C231.585 39.5912 231.169 37.7672 230.337 36.8712C229.569 35.9752 228.481 35.5272 227.073 35.5272C226.241 35.5272 225.505 35.6552 224.865 35.9112C223.594 36.3346 223.041 37.7466 223.041 39.0856V43.9221C223.041 46.6931 224.302 49.7352 227.073 49.7352Z" fill="white"/>
<path d="M455.151 82.2792C452.015 82.2792 449.455 82.1192 447.471 81.7992C447.027 81.7251 446.581 81.6373 446.133 81.5358C443.324 80.8991 441.615 78.1968 441.615 75.3162V71.1539C441.615 68.2808 444.502 66.2472 447.375 66.2472C449.295 66.2472 450.895 66.0872 452.175 65.7672C454.426 65.317 454.795 62.5809 453.814 60.5055L441.773 35.0367C438.443 27.9923 443.581 19.8792 451.374 19.8792H454.199C457.013 19.8792 459.531 21.6852 460.464 24.3397C462.541 30.2453 470.958 30.3036 472.945 24.3673C473.842 21.6864 476.353 19.8792 479.18 19.8792H482.419C490.217 19.8792 495.573 27.7235 492.734 34.9863L482.991 59.9112C480.239 66.8872 476.655 72.3592 472.239 76.3272C467.823 80.2952 462.127 82.2792 455.151 82.2792Z" fill="white"/>
<path fill-rule="evenodd" clip-rule="evenodd" d="M271.706 0.679199C265.291 0.679199 260.09 5.87986 260.09 12.2952V53.7672C260.09 60.1825 265.291 65.3832 271.706 65.3832C278.121 65.3832 283.322 60.1825 283.322 53.7672V40.2879C283.322 38.766 283.86 37.2209 285.242 36.5832C286.138 36.1992 286.906 36.0072 287.546 36.0072C289.658 36.0072 290.714 37.0952 290.714 39.2712V53.7672C290.714 60.1825 295.915 65.3832 302.33 65.3832H307.28C310.961 65.3832 313.946 62.3986 313.946 58.717C307.883 52.3715 307.318 41.4803 313.863 34.8884C313.51 29.8501 312.034 26.0311 309.434 23.4312C306.426 20.4232 301.69 18.9192 295.226 18.9192C292.858 18.9192 290.586 19.2072 288.41 19.7832C286.041 20.3575 283.322 18.6246 283.322 16.1871V8.45546C283.322 4.16075 279.84 0.679199 275.546 0.679199H271.706ZM379.315 65.3832C379.07 65.3832 378.871 65.1847 378.871 64.9398C380.573 63.3818 381.942 61.5112 382.9 59.496C385.862 53.2598 385.278 44.8295 378.871 39.1165V34.6245C381.464 29.5205 381.125 24.2346 378.966 19.8792H399.668C400.245 19.8792 400.739 20.2906 400.844 20.8577C400.992 21.6553 401.877 22.0825 402.623 21.7639C404.064 21.1487 405.81 20.5844 407.863 20.0712C410.743 19.3032 413.847 18.9192 417.175 18.9192C422.615 18.9192 426.551 20.3592 428.983 23.2392C431.479 26.0552 432.727 30.3432 432.727 36.1032V53.7672C432.727 60.1826 427.527 65.3832 421.111 65.3832C414.696 65.3832 409.495 60.1825 409.495 53.7672V39.0792C409.495 37.0312 408.439 36.0072 406.327 36.0072C405.687 36.0072 404.919 36.1992 404.023 36.5832C402.641 37.2209 402.103 38.766 402.103 40.2879V53.7672C402.103 60.1825 396.903 65.3832 390.487 65.3832H379.315ZM335.054 65.4106C335.034 65.1618 335.023 64.9078 335.021 64.6488C335.005 62.3951 334.159 60.3392 332.775 58.7712L325.423 37.3542C325.098 37.5255 324.761 37.6793 324.411 37.8139L322.947 38.3767L322.522 38.5507C319.874 39.7038 318.263 41.7259 317.574 43.9875L317.344 44.9222C316.412 49.8221 319.542 55.4112 325.647 55.7209L326.107 55.7347C328.762 55.7533 331.143 56.9237 332.775 58.7712L335.054 65.4106Z" fill="white"/>
<path d="M358.433 19.8524C366.655 14.1712 376.62 24.1362 370.939 32.3585C368.216 36.2986 369.093 41.706 372.892 44.6231C380.916 50.7854 374.836 63.6456 365.055 61.0591L363.946 60.7659C359.37 59.5558 354.617 61.9856 352.919 66.4035L352.356 67.8669C348.796 77.1234 335.068 74.6248 334.998 64.7076C334.964 59.7986 330.993 55.8275 326.084 55.793C316.166 55.7232 313.668 41.995 322.924 38.4354L324.388 37.8727C328.806 36.1738 331.235 31.4208 330.025 26.8448L329.732 25.736C327.146 15.955 340.006 9.87571 346.168 17.8997C349.085 21.698 354.493 22.5748 358.433 19.8524Z" fill="white"/>
</svg>
