<svg width="373" height="104" viewBox="0 0 373 104" fill="none" xmlns="http://www.w3.org/2000/svg">
<rect width="372.5" height="103.5" rx="33" fill="#2A0044"/>
<path d="M133.32 64V34.4985H143.169V44.8057H151.918V34.4985H161.768V64H151.918V53.6928H143.169V64H133.32ZM172.174 64.4581C170.8 64.4581 169.533 64.2138 168.372 63.7251C167.212 63.2365 166.28 62.473 165.578 61.4347C164.875 60.3658 164.524 59.0067 164.524 57.3576C164.524 55.006 165.288 53.2042 166.814 51.952C168.341 50.6694 170.678 50.028 173.823 50.028H179.092V49.7074C179.092 49.0966 178.74 48.6385 178.038 48.3331C177.366 47.9971 176.267 47.8292 174.74 47.8292C173.579 47.8292 172.327 47.936 170.983 48.1498C169.67 48.3331 168.418 48.6079 167.227 48.9744V43.4314C168.387 42.9428 169.838 42.561 171.579 42.2862C173.319 41.9808 175.03 41.8281 176.709 41.8281C180.252 41.8281 183.092 42.561 185.23 44.0269C187.368 45.4623 188.437 47.7375 188.437 50.8526V64H179.824L179.412 62.3508C178.649 62.9922 177.671 63.5114 176.48 63.9084C175.32 64.2749 173.884 64.4581 172.174 64.4581ZM175.747 58.9151C176.511 58.9151 177.152 58.793 177.671 58.5486C178.221 58.2738 178.694 57.9378 179.092 57.5408V55.2045H175.976C174.358 55.2045 173.549 55.8306 173.549 57.0827C173.549 58.3043 174.281 58.9151 175.747 58.9151ZM191.969 64V42.2862H201.543L201.772 43.7979C202.597 43.3093 203.681 42.8664 205.024 42.4694C206.368 42.0724 207.743 41.8586 209.147 41.8281V49.1118C208.384 49.1424 207.529 49.2187 206.582 49.3409C205.666 49.463 204.78 49.6157 203.925 49.799C203.1 49.9517 202.398 50.1502 201.818 50.3945V64H191.969ZM211.429 64V42.2862H220.545L220.774 43.8437C221.66 43.2635 222.668 42.7901 223.798 42.4236C224.958 42.0266 226.241 41.8281 227.646 41.8281C228.989 41.8281 230.043 42.0266 230.806 42.4236C231.57 42.7901 232.196 43.3245 232.685 44.0269C233.662 43.3551 234.761 42.8206 235.983 42.4236C237.205 42.0266 238.625 41.8281 240.243 41.8281C242.809 41.8281 244.672 42.5152 245.832 43.8895C247.023 45.2333 247.619 47.2642 247.619 49.9822V64H237.953V51.1275C237.953 50.425 237.8 49.9211 237.495 49.6157C237.22 49.2798 236.731 49.1118 236.029 49.1118C235.174 49.1118 234.471 49.4172 233.921 50.028C233.952 50.4556 233.967 50.8679 233.967 51.2649C233.967 51.6619 233.967 52.0895 233.967 52.5476V64H224.851V50.9442C224.851 50.3029 224.729 49.8448 224.485 49.5699C224.271 49.2645 223.859 49.1118 223.248 49.1118C222.82 49.1118 222.408 49.234 222.011 49.4783C221.614 49.6921 221.247 49.9669 220.912 50.3029V64H211.429ZM262.58 64.4581C258.122 64.4581 254.808 63.5114 252.64 61.6179C250.502 59.6939 249.433 56.8689 249.433 53.1431C249.433 49.4172 250.517 46.6076 252.686 44.7141C254.854 42.7901 258.152 41.8281 262.58 41.8281C267.039 41.8281 270.353 42.7901 272.521 44.7141C274.72 46.6076 275.82 49.4172 275.82 53.1431C275.82 56.8689 274.735 59.6939 272.567 61.6179C270.399 63.5114 267.07 64.4581 262.58 64.4581ZM262.58 57.3576C263.68 57.3576 264.489 57.0369 265.008 56.3956C265.528 55.7542 265.787 54.6701 265.787 53.1431C265.787 51.6161 265.528 50.5319 265.008 49.8906C264.489 49.2493 263.68 48.9286 262.58 48.9286C261.512 48.9286 260.718 49.2493 260.198 49.8906C259.71 50.5319 259.465 51.6161 259.465 53.1431C259.465 54.6701 259.71 55.7542 260.198 56.3956C260.718 57.0369 261.512 57.3576 262.58 57.3576ZM278.578 64V42.2862H287.786L288.015 43.7521C288.809 43.2329 289.893 42.7901 291.267 42.4236C292.641 42.0266 294.107 41.8281 295.665 41.8281C298.322 41.8281 300.261 42.5152 301.483 43.8895C302.704 45.2333 303.315 47.2947 303.315 50.0738V64H293.466V51.2191C293.466 50.4556 293.298 49.9211 292.962 49.6157C292.626 49.2798 292.061 49.1118 291.267 49.1118C290.778 49.1118 290.259 49.234 289.71 49.4783C289.19 49.7226 288.763 50.0128 288.427 50.3487V64H278.578ZM313.661 72.0625C312.317 72.0625 311.202 71.9862 310.317 71.8335C309.431 71.7113 308.545 71.467 307.66 71.1005V64.6413C308.118 64.8246 308.561 64.9467 308.988 65.0078C309.446 65.0689 309.92 65.0994 310.408 65.0994C311.477 65.0994 312.302 64.9773 312.882 64.733C313.493 64.5192 314.043 64.0763 314.531 63.4045L304.682 42.2862H314.989L319.433 54.1051L323.693 42.2862H333.955L326.213 61.6637C324.93 64.8704 323.311 67.4052 321.357 69.2681C319.402 71.1311 316.837 72.0625 313.661 72.0625Z" fill="#FF43DC"/>
<path d="M332.031 23.3033C333.964 19.5622 339.508 20.2451 340.476 24.3435L342.547 33.1147C342.635 33.4845 342.879 33.798 343.217 33.9725L351.223 38.1093C354.964 40.0426 354.281 45.5865 350.183 46.5543L341.412 48.6254C341.042 48.7128 340.729 48.9574 340.554 49.2951L336.416 57.3014C334.483 61.0422 328.939 60.3594 327.971 56.2612L325.901 47.4902C325.814 47.1202 325.569 46.8069 325.231 46.6323L317.225 42.4945C313.484 40.5613 314.167 35.0172 318.265 34.0496L327.036 31.9794C327.406 31.892 327.72 31.6473 327.894 31.3097L332.031 23.3033Z" fill="#FF43DC" stroke="#2A0044" stroke-width="3.2334"/>
<path d="M146.611 58.0686C150.55 58.8309 151.414 64.0813 147.928 66.0664L140.468 70.3147C140.153 70.494 139.933 70.8019 139.864 71.1574L138.233 79.5854C137.471 83.5238 132.22 84.3886 130.235 80.9026L125.987 73.443C125.808 73.1282 125.5 72.9074 125.144 72.8386L116.716 71.207C112.778 70.4447 111.913 65.1943 115.399 63.2093L122.858 58.9611C123.173 58.7819 123.394 58.4746 123.463 58.1192L125.094 49.6903C125.857 45.7519 131.107 44.8871 133.092 48.3731L137.341 55.8336C137.52 56.1479 137.827 56.3683 138.182 56.4372L146.611 58.0686Z" fill="#FF43DC" stroke="#2A0044" stroke-width="3.08018"/>
<rect x="7.5" y="7.5" width="88.764" height="88.764" rx="26" fill="#FF43DC"/>
<path d="M48.8371 26.6084C50.357 23.8294 54.3482 23.8295 55.868 26.6084L63.1639 39.9484C63.5316 40.6208 64.0844 41.1735 64.7567 41.5412L78.0968 48.8371C80.8757 50.357 80.8757 54.3482 78.0968 55.868L64.7567 63.1639C64.0844 63.5316 63.5316 64.0844 63.1639 64.7567L55.868 78.0968C54.3482 80.8757 50.357 80.8757 48.8371 78.0968L41.5412 64.7567C41.1735 64.0844 40.6208 63.5316 39.9484 63.1639L26.6084 55.868C23.8294 54.3482 23.8295 50.357 26.6084 48.8371L39.9484 41.5412C40.6208 41.1735 41.1735 40.6208 41.5412 39.9484L48.8371 26.6084Z" fill="white"/>
</svg>
